<svg xmlns="http://www.w3.org/2000/svg" viewBox="0 0 64 64" role="img" aria-label="Atelier Inove">
  <defs>
    <linearGradient id="gold" x1="12" y1="8" x2="52" y2="58" gradientUnits="userSpaceOnUse">
      <stop offset="0" stop-color="#ffcf7a"/>
      <stop offset="0.48" stop-color="#f2a13a"/>
      <stop offset="1" stop-color="#9d542b"/>
    </linearGradient>
    <linearGradient id="blue" x1="18" y1="14" x2="50" y2="52" gradientUnits="userSpaceOnUse">
      <stop offset="0" stop-color="#75d7ff"/>
      <stop offset="1" stop-color="#3f8cff"/>
    </linearGradient>
  </defs>
  <rect width="64" height="64" rx="14" fill="#050505"/>
  <rect x="5" y="5" width="54" height="54" rx="11" fill="#101012" stroke="url(#gold)" stroke-width="2"/>
  <path d="M32 13c7.2 0 12.8 5.5 12.8 12.6 0 6.1-3.6 11.3-5.6 16.6-1.3 3.4-2.3 7.6-5.4 7.6-1.8 0-2.6-2.5-3.1-5.3-.5 2.8-1.4 5.3-3.2 5.3-3.1 0-4.1-4.2-5.4-7.6-2-5.3-5.6-10.5-5.6-16.6C16.5 18.5 22.2 13 29.4 13c1 0 1.8.2 2.6.5.7-.3 1.6-.5 2.6-.5Z" fill="none" stroke="url(#blue)" stroke-width="3.4" stroke-linecap="round" stroke-linejoin="round"/>
  <path d="M18 47h28" stroke="url(#gold)" stroke-width="2.6" stroke-linecap="round"/>
  <text x="32" y="38" text-anchor="middle" font-family="Inter, Arial, sans-serif" font-size="17" font-weight="900" fill="#f7f2ea">IN</text>
</svg>
